PathFileType	4	(X/Y/Z)	RBDS04\RBDS04runT25.trc
DataRate	CameraRate	NumFrames	NumMarkers	Units	OrigDataRate	OrigDataStartFrame	OrigNumFrames
150.000000	150.000000	4	33	mm	150.000000	1125	4500
Frame#	Time	L.ASIS			L.Heel.Bottom			L.Heel.Lateral			L.Heel.Top			L.Iliac.Crest			L.MT1			L.MT5			L.PSIS			L.Shank.Bottom.Lateral			L.Shank.Bottom.Medial			L.Shank.Top.Lateral			L.Shank.Top.Medial			L.Thigh.Bottom.Lateral			L.Thigh.Bottom.Medial			L.Thigh.Top.Lateral			L.Thigh.Top.Medial			R.ASIS			R.ASY			R.Heel.Bottom			R.Heel.Lateral			R.Heel.Top			R.Iliac.Crest			R.MT1			R.MT5			R.PSIS			R.Shank.Bottom.Lateral			R.Shank.Bottom.Medial			R.Shank.Top.Lateral			R.Shank.Top.Medial			R.Thigh.Bottom.Lateral			R.Thigh.Bottom.Medial			R.Thigh.Top.Lateral			R.Thigh.Top.Medial			
		X1	Y1	Z1	X2	Y2	Z2	X3	Y3	Z3	X4	Y4	Z4	X5	Y5	Z5	X6	Y6	Z6	X7	Y7	Z7	X8	Y8	Z8	X9	Y9	Z9	X10	Y10	Z10	X11	Y11	Z11	X12	Y12	Z12	X13	Y13	Z13	X14	Y14	Z14	X15	Y15	Z15	X16	Y16	Z16	X17	Y17	Z17	X18	Y18	Z18	X19	Y19	Z19	X20	Y20	Z20	X21	Y21	Z21	X22	Y22	Z22	X23	Y23	Z23	X24	Y24	Z24	X25	Y25	Z25	X26	Y26	Z26	X27	Y27	Z27	X28	Y28	Z28	X29	Y29	Z29	X30	Y30	Z30	X31	Y31	Z31	X32	Y32	Z32	X33	Y33	Z33	

1126	7.500000000000001	2180.456580007965	990.74781011222	891.9186797588238	2110.306070735692	71.18640549481044	902.40081685067	2144.39934202664	84.94860803027461	860.1743821552416	2123.140175384234	116.6835850151335	899.8287587846429	2115.85517481783	1062.949159210766	839.6961260889715	2323.675686903048	77.91262415602944	942.7062142536429	2294.166554027927	59.62672038912459	846.6398298404871	2019.412142064821	1036.36473235473	940.2466177614299	2191.004323822668	214.0678743801689	849.2108525378391	2147.749127438043	215.6653065069884	875.8984172739417	2190.146451987197	293.6096977688352	835.7356434316116	2145.817744946026	299.6511654381549	865.0630223142673	2203.449980441819	650.9077564568825	816.6651708355572	2141.969033296166	626.3041223565858	847.4839925890039	2154.897746475955	749.1688693923703	805.0335051364214	2097.18467204245	726.8894913784574	834.9389510773566	2173.07490623833	974.6768356893571	1082.894706162417	1763.959294213667	119.3483860506234	1022.638476709911	1617.21602734716	224.3924027238265	1012.519991497937	1645.840106870319	204.5623012260173	1053.957684970471	1658.072388858791	243.9217776020416	1018.549064204723	2136.658157323936	1049.099559540922	1116.481017409356	1757.769473410919	68.44556931803366	977.3807499193355	1724.64181078497	76.55702674008498	1073.145624811958	2021.219752469239	1035.240874338995	1026.778550102521	1739.004495575797	276.1002815812828	1075.702061538832	1714.453833595631	300.3701468109428	1033.408745229334	1773.593846575201	347.7632182077278	1093.669586599235	1750.539690998151	369.9066948500652	1050.151840422869	1973.185977489738	636.0491607918296	1127.11858141914	1924.246652809544	653.3365160283037	1074.590988372823	1991.172738982292	743.9977627403167	1142.743450037793	1945.597560569854	760.394987536904	1091.318862049653	
1127	7.506666666666667	2181.118124769891	990.8066793451408	891.8442715762237	2130.155158386125	63.03336773118905	903.4401218231907	2163.269483686528	78.24305949910641	860.9311694531455	2140.279150961166	109.1050231081263	900.2826313335803	2116.695222527371	1063.006947282764	839.3645777068185	2342.752112754787	82.3471240983208	942.6813269515978	2314.087330480672	61.37569179291279	847.0061108751559	2020.393444479896	1037.158823313929	939.9556691266812	2202.304198445679	211.1033827152787	849.1750370165198	2159.251635925327	210.4871869495494	876.2201105250836	2197.326501228795	290.438757519065	835.603071864149	2152.925316137096	294.2657156546423	865.2266308968974	2199.19413596626	649.0466869954286	815.9332471604215	2137.875884869896	625.5879207385159	847.8593999267034	2152.015961284448	748.0063745271179	804.4129676507695	2094.385879774914	726.7462690482492	835.2014590322904	2173.704616950831	975.3864299498432	1082.684478680908	1753.633700557327	123.1984142061118	1023.907159119252	1612.271264939328	234.9343301280164	1014.200396683912	1639.78695541733	213.5988408101652	1055.605477320245	1653.958677269849	252.4610665913387	1020.488172713449	2137.370105517109	1050.078530222385	1116.024840430325	1745.685801604185	72.5668664891684	978.4272470497037	1712.573703967372	81.24349750956549	1073.863038375689	2022.103013191588	1036.251466690424	1026.5056660024	1733.986994744602	281.1483675967821	1077.241513428381	1709.732526177976	305.744765504628	1035.042906612053	1770.065961042474	352.1410564964001	1094.899758459283	1747.087241093569	374.6684389218663	1051.555235026542	1973.693848052663	637.1486218916458	1127.102838533964	1924.50929927703	654.6934492551916	1074.866336373643	1992.152312969092	744.9565251718908	1142.82959164929	1946.222823497637	761.6469912929389	1091.805576898424	
1128	7.513333333333334	2181.690905891552	990.4954290685694	891.7896566193664	2148.639706792811	55.87848289783602	904.5625962619616	2180.772480159182	72.30876577098536	861.7774193161583	2156.178519024574	102.3720955666033	900.7481755563674	2117.47106273339	1062.623949469826	839.0344830589429	2359.994150249387	87.16775840884151	942.6330434158942	2332.235215617387	63.41957083479788	847.3885757321096	2021.251680085439	1037.473677140187	939.6566711245545	2212.50063976043	208.5341502087499	849.152986181809	2169.754557003786	205.8583045441848	876.5625447582797	2203.701294839644	287.5061254759856	835.5420733408099	2159.339738034769	289.2667681466111	865.461826173535	2195.016506570855	646.8413313389383	815.1634633359415	2133.922198171283	624.5409569685935	848.2818752421416	2149.162760319382	746.459537002655	803.69379280971	2091.683120639618	726.2210974367882	835.4437588289258	2174.272273898267	975.7596043082174	1082.449668005173	1743.432185009205	127.1861862458153	1025.236421527021	1607.665553667056	245.24566488175	1015.618387660874	1633.909940982124	222.4769710799114	1057.059319667184	1650.058270905551	260.7726317370202	1022.265145143817	2137.897069361486	1050.691362461641	1115.573396754438	1733.864091778884	76.95192291326273	979.5275113812545	1700.552796608564	86.18939426306619	1074.552941614078	2022.871159868118	1036.806917765852	1026.231419809011	1729.361493306088	286.0075768490942	1078.748540877009	1705.387050241219	311.0484432321925	1036.721030699379	1767.134031249809	356.1878386898164	1096.100958527279	1744.200653219399	379.2190506734837	1053.00723322342	1975.074877344456	637.4104211392477	1127.03975523737	1925.431201431134	655.1742550524543	1075.28011316078	1993.783004522014	745.0844572099921	1142.970367367095	1947.222282149772	762.0452083659216	1092.596862050154	
1129	7.52	2182.16071733854	989.8352004685277	891.7205077170642	2165.35499138381	49.69278454408126	905.8189148943194	2196.540745946132	67.08563378409227	862.7590040449455	2170.531271870116	96.47072882123014	901.2937153327807	2118.157227891874	1061.852890491392	838.7110086991648	2375.181046152465	91.95616595088239	942.5996458897646	2348.310469621162	65.41365608280255	847.8245646383115	2021.975641913298	1037.28701717582	939.36221957771	2221.455412848293	206.2322896859171	849.175172245253	2179.09374007825	201.6883599492126	876.9563264994421	2209.192922520823	284.7370486770529	835.5705330191827	2164.963878406754	284.6195018164452	865.7882781397263	2191.032467410947	644.3578900287084	814.4271700974964	2130.201879756976	623.1938803095534	848.7617022019369	2146.417706901809	744.5784596851921	802.9428492409562	2089.144592331852	725.3376342534128	835.6948555271413	2174.797707501366	975.7625834337206	1082.171009654384	1733.446196910814	131.3228718881087	1026.627071737949	1603.362112148394	255.2834959421222	1016.774232758143	1628.21038850899	231.1701601365177	1058.309064039629	1646.340021061409	268.8431799642643	1023.861518659803	2138.25381088321	1050.919710120953	1115.116392044496	1722.409363824453	81.57891378212209	980.663314090024	1688.692143372862	91.40222391451002	1075.22913415014	2023.531618089059	1036.874415380927	1025.968178253089	1725.125299809567	290.6966202737866	1080.207060060973	1701.443994875398	316.2912415543946	1038.405699892284	1764.768143116213	359.9195674617457	1097.261393385385	1741.891726561344	383.5601151617769	1054.47337432054	1977.277196222657	636.8079602107067	1126.936759864214	1926.999553703652	654.7296214921074	1075.801891707722	1995.989816198234	744.3633639264865	1143.153685149581	1948.568386559269	761.5434974632734	1093.636025687749	
